<?xml version="1.0" standalone="no"?>
<!DOCTYPE svg PUBLIC "-//W3C//DTD SVG 20010904//EN"
 "http://www.w3.org/TR/2001/REC-SVG-20010904/DTD/svg10.dtd">
<svg version="1.0" xmlns="http://www.w3.org/2000/svg"
 width="1280.000000pt" height="232.000000pt" viewBox="0 0 1280.000000 232.000000"
 preserveAspectRatio="xMidYMid meet">

<g transform="translate(0.000000,232.000000) scale(0.100000,-0.100000)"
fill="#000000" stroke="none">
<path d="M866 2163 c-57 -86 -171 -309 -178 -347 -3 -16 8 -21 67 -33 194 -40
450 -147 615 -258 119 -80 200 -148 310 -260 l94 -97 24 29 c85 103 247 388
237 415 -3 8 -40 45 -82 83 -269 244 -554 411 -875 513 -163 52 -145 56 -212
-45z"/>
<path d="M3409 2060 c-295 -35 -560 -212 -687 -458 -82 -159 -106 -275 -99
-474 5 -163 20 -232 78 -356 112 -242 313 -409 578 -480 83 -21 117 -25 246
-25 177 0 257 17 400 87 155 75 250 158 345 303 37 56 110 221 110 249 0 2
-85 4 -189 4 l-189 0 -30 -62 c-73 -156 -217 -250 -403 -265 -203 -16 -401 80
-498 241 -59 99 -83 178 -88 302 -14 289 119 509 356 590 254 86 527 -13 631
-231 l31 -65 190 0 190 0 -6 23 c-40 133 -117 265 -205 356 -145 149 -326 236
-543 260 -105 12 -121 12 -218 1z"/>
<path d="M4560 1165 l0 -875 160 0 160 0 0 875 0 875 -160 0 -160 0 0 -875z"/>
<path d="M7403 2031 c-70 -18 -127 -74 -148 -146 -51 -168 121 -319 280 -246
84 38 132 124 121 215 -14 119 -138 206 -253 177z"/>
<path d="M12094 2026 c-3 -8 -4 -27 -2 -43 3 -25 7 -28 46 -31 l42 -3 0 -115
0 -114 45 0 45 0 0 114 0 115 43 3 c42 3 42 3 42 43 l0 40 -128 3 c-104 2
-128 0 -133 -12z"/>
<path d="M12410 1879 l0 -160 43 3 42 3 5 80 5 80 14 -47 c13 -46 15 -48 50
-48 35 0 37 2 56 53 l20 52 3 -87 3 -88 39 0 40 0 0 160 0 160 -49 0 c-55 0
-57 -1 -87 -80 l-21 -55 -18 55 c-24 76 -29 80 -91 80 l-54 0 0 -161z"/>
<path d="M10318 1653 l-3 -218 -87 -3 -88 -3 0 -134 0 -135 90 0 90 0 0 -354
0 -354 28 -53 c24 -45 37 -59 87 -84 55 -28 67 -30 188 -34 72 -1 163 0 203 4
l74 7 0 137 0 137 -84 -4 c-97 -5 -129 1 -156 28 -19 19 -20 35 -20 295 l0
275 125 0 125 0 0 135 0 135 -125 0 -125 0 0 220 0 220 -160 0 -160 0 -2 -217z"/>
<path d="M190 1811 c-33 -6 -35 -9 -52 -76 -52 -198 -63 -298 -63 -575 0 -277
5 -322 56 -543 18 -77 24 -90 47 -99 29 -11 425 -5 473 7 l26 7 -28 87 c-111
346 -112 727 -3 1084 15 48 25 89 23 91 -20 20 -389 33 -479 17z"/>
<path d="M5430 1446 c-117 -25 -310 -104 -310 -126 0 -6 27 -62 60 -124 l61
-114 74 33 c247 113 455 83 457 -64 1 -73 -5 -75 -230 -82 -223 -7 -273 -18
-349 -76 -57 -43 -65 -53 -101 -118 -24 -45 -27 -60 -27 -150 0 -95 2 -103 34
-163 59 -109 157 -174 292 -195 124 -19 268 19 352 93 l37 32 0 -51 0 -51 160
0 161 0 -3 428 c-3 420 -3 428 -26 484 -43 106 -144 194 -269 234 -67 22 -289
27 -373 10z m345 -743 c-4 -38 -14 -83 -22 -101 -52 -110 -249 -139 -331 -49
-31 33 -39 94 -18 135 27 52 65 65 211 72 72 4 138 7 149 8 17 2 18 -3 11 -65z"/>
<path d="M9340 1444 c-80 -17 -166 -47 -245 -86 -33 -17 -61 -31 -63 -33 -2
-2 114 -230 124 -243 1 -2 28 10 60 26 143 72 314 96 398 57 46 -22 76 -67 76
-115 0 -72 -22 -80 -222 -80 -115 0 -181 -5 -223 -15 -174 -46 -269 -161 -269
-330 0 -67 4 -90 28 -142 71 -156 252 -244 438 -215 93 14 155 40 207 87 l41
37 0 -51 0 -51 160 0 161 0 -3 438 -3 437 -33 67 c-74 152 -231 229 -461 227
-58 0 -135 -7 -171 -15z m345 -792 c-13 -87 -102 -151 -208 -152 -106 0 -167
51 -167 140 0 32 6 48 28 70 39 38 88 50 212 50 58 0 112 5 120 10 12 8 16 2
18 -33 2 -23 1 -61 -3 -85z"/>
<path d="M11432 1446 c-192 -47 -348 -192 -408 -381 -108 -336 59 -676 381
-778 57 -18 93 -22 195 -21 113 0 133 3 210 30 148 52 252 138 320 265 l30 56
-38 6 c-20 3 -95 11 -165 18 l-128 12 -37 -35 c-62 -60 -96 -73 -192 -73 -62
0 -95 5 -121 18 -68 34 -125 105 -143 180 l-6 27 426 0 427 0 -6 93 c-24 369
-254 599 -598 596 -52 0 -118 -6 -147 -13z m239 -268 c73 -21 159 -118 159
-178 0 -20 -5 -20 -250 -20 -282 0 -268 -4 -229 77 52 107 191 160 320 121z"/>
<path d="M6810 1436 c-79 -21 -148 -74 -183 -141 -16 -30 -16 -29 -17 53 l0
82 -160 0 -160 0 0 -570 0 -570 165 0 165 0 0 318 c0 337 4 373 47 431 41 54
91 71 216 71 l107 0 0 164 0 164 -31 6 c-46 9 -98 6 -149 -8z"/>
<path d="M7140 1295 l0 -135 80 0 80 0 0 -435 0 -435 165 0 165 0 0 570 0 570
-245 0 -245 0 0 -135z"/>
<path d="M7887 1063 c69 -203 155 -458 192 -568 l68 -200 203 0 202 0 195 545
c106 300 196 555 199 568 l6 22 -169 0 -168 0 -129 -392 c-71 -216 -131 -386
-134 -378 -3 8 -58 184 -122 390 l-116 375 -176 3 -177 2 126 -367z"/>
<path d="M1645 1026 c-149 -150 -267 -235 -460 -331 -158 -78 -276 -121 -413
-151 -45 -9 -82 -21 -82 -26 0 -5 24 -61 54 -124 66 -137 181 -318 199 -311 7
3 47 14 88 26 254 71 555 229 781 409 110 88 218 192 218 210 0 45 -236 428
-260 420 -3 -1 -59 -56 -125 -122z"/>
</g>
</svg>
